<svg width="14" height="14" viewBox="0 0 14 14" fill="none" xmlns="http://www.w3.org/2000/svg">
<path d="M13.7073 1.70719C14.0983 1.31719 14.0983 0.68325 13.7073 0.29325C13.3173 -0.09775 12.6833 -0.09775 12.2933 0.29325L7.00025 5.58622L1.70725 0.29325C1.31725 -0.09775 0.68325 -0.09775 0.29325 0.29325C-0.09775 0.68325 -0.09775 1.31719 0.29325 1.70719L5.58625 7.00022L0.29325 12.2933C-0.09775 12.6833 -0.09775 13.3172 0.29325 13.7072C0.68325 14.0982 1.31725 14.0982 1.70725 13.7072L7.00025 8.41422L12.2933 13.7072C12.6833 14.0982 13.3173 14.0982 13.7073 13.7072C14.0983 13.3172 14.0983 12.6833 13.7073 12.2933L8.41425 7.00022L13.7073 1.70719Z" fill="#EEEEEE"/>
</svg>
