<svg width="9" height="10" viewBox="0 0 9 10" fill="none" xmlns="http://www.w3.org/2000/svg">
<path fill-rule="evenodd" clip-rule="evenodd" d="M6.55823 1.12755C6.55823 0.913752 6.3854 0.740234 6.17245 0.740234C5.95949 0.740234 5.78666 0.913752 5.78666 1.12755V1.51487H3.47197V1.12755C3.47197 0.913752 3.29913 0.740234 3.08618 0.740234C2.87323 0.740234 2.7004 0.913752 2.7004 1.12755V1.51487H1.92883C1.28959 1.51487 0.771484 2.03503 0.771484 2.67682V5.38803H1.54305V4.6134H7.71558V8.09924C7.71558 8.31304 7.54275 8.48656 7.3298 8.48656H4.62931V9.26119H7.3298C7.96904 9.26119 8.48714 8.74102 8.48714 8.09924V2.67682C8.48714 2.03503 7.96904 1.51487 7.3298 1.51487H6.55823V1.12755ZM7.71558 3.83876V2.67682C7.71558 2.46302 7.54275 2.2895 7.3298 2.2895H6.55823V2.67682C6.55823 2.89061 6.3854 3.06413 6.17245 3.06413C5.95949 3.06413 5.78666 2.89061 5.78666 2.67682V2.2895H3.47197V2.67682C3.47197 2.89061 3.29913 3.06413 3.08618 3.06413C2.87323 3.06413 2.7004 2.89061 2.7004 2.67682V2.2895H1.92883C1.71588 2.2895 1.54305 2.46302 1.54305 2.67682V3.83876H7.71558Z" fill="#BDBDBD"/>
<path d="M2.3147 5.30889C2.4667 5.15745 2.71284 5.15745 2.86483 5.30889L4.5156 6.95458C4.66721 7.10603 4.66721 7.35159 4.5156 7.50303L2.86483 9.14872C2.71284 9.30016 2.4667 9.30016 2.3147 9.14872C2.1627 8.99728 2.1627 8.75173 2.3147 8.5999L3.30115 7.6165H0.388868C0.173986 7.6165 0 7.44299 0 7.22881C0 7.01462 0.173986 6.84111 0.388868 6.84111H3.30115L2.3147 5.85772C2.1627 5.70589 2.1627 5.46033 2.3147 5.30889Z" fill="#BDBDBD"/>
</svg>
