<svg width="20" height="22" viewBox="0 0 20 22" fill="none" xmlns="http://www.w3.org/2000/svg">
<path fill-rule="evenodd" clip-rule="evenodd" d="M10.614 0.21075C10.253 -0.07025 9.74699 -0.07025 9.38599 0.21075L0.385986 7.21075C0.141986 7.39975 0 7.69075 0 7.99975V18.9998C0 19.7958 0.315998 20.5587 0.878998 21.1207C1.441 21.6837 2.204 21.9998 3 21.9998H17C17.796 21.9998 18.559 21.6837 19.121 21.1207C19.684 20.5587 20 19.7958 20 18.9998V7.99975C20 7.69075 19.858 7.39975 19.614 7.21075L10.614 0.21075ZM14 19.9998H17C17.265 19.9998 17.52 19.8947 17.707 19.7067C17.895 19.5197 18 19.2648 18 18.9998V8.48876L10 2.26678L2 8.48876V18.9998C2 19.2648 2.105 19.5197 2.293 19.7067C2.48 19.8947 2.735 19.9998 3 19.9998H6V10.9998C6 10.4478 6.448 9.99975 7 9.99975H13C13.552 9.99975 14 10.4478 14 10.9998V19.9998ZM8 19.9998V11.9998H12V19.9998H8Z" fill="#BDBDBD"/>
</svg>
