<svg width="8" height="11" viewBox="0 0 8 11" fill="none" xmlns="http://www.w3.org/2000/svg">
<path fill-rule="evenodd" clip-rule="evenodd" d="M4.00039 3.08984C3.11679 3.08984 2.40039 3.80905 2.40039 4.6962C2.40039 5.58336 3.11679 6.30256 4.00039 6.30256C4.88399 6.30256 5.60039 5.58336 5.60039 4.6962C5.60039 3.80905 4.88399 3.08984 4.00039 3.08984ZM3.20039 4.6962C3.20039 4.25261 3.55839 3.89302 4.00039 3.89302C4.44239 3.89302 4.80039 4.25261 4.80039 4.6962C4.80039 5.1398 4.44239 5.49938 4.00039 5.49938C3.55839 5.49938 3.20039 5.1398 3.20039 4.6962Z" fill="#EEEEEE"/>
<path fill-rule="evenodd" clip-rule="evenodd" d="M3.778 10.2522C3.778 10.2523 3.778 10.2524 4 9.91821L3.778 10.2522C3.9124 10.3421 4.0876 10.3423 4.222 10.2524L4 9.91821C4.222 10.2524 4.2216 10.2524 4.222 10.2524L4.22319 10.2515L4.226 10.2496L4.23521 10.2434C4.24281 10.2381 4.25399 10.2305 4.26799 10.2206C4.29639 10.2008 4.33759 10.1721 4.38879 10.1347C4.49159 10.0601 4.6376 9.95122 4.8116 9.81195C5.1596 9.53389 5.62441 9.13222 6.09041 8.63822C7.00641 7.66762 8 6.2645 8 4.69754C8 3.63244 7.57839 2.611 6.82839 1.85786C6.07839 1.10476 5.0608 0.681641 4 0.681641C2.9392 0.681641 1.92161 1.10476 1.17161 1.85786C0.421606 2.611 0 3.63244 0 4.69754C0 6.2645 0.993595 7.66762 1.90959 8.63822C2.37559 9.13222 2.8404 9.53389 3.1884 9.81195C3.3624 9.95122 3.50841 10.0601 3.61121 10.1347C3.66241 10.1721 3.70361 10.2008 3.73201 10.2206C3.74601 10.2305 3.75719 10.2381 3.7648 10.2434L3.774 10.2496L3.77681 10.2515L3.778 10.2522ZM1.73721 2.42579C2.33721 1.82332 3.1512 1.48482 4 1.48482C4.8488 1.48482 5.66279 1.82332 6.26279 2.42579C6.86279 3.02829 7.2 3.84549 7.2 4.69754C7.2 5.94171 6.39359 7.14893 5.50959 8.08588C5.07559 8.54566 4.64041 8.92207 4.31321 9.18362C4.19161 9.28101 4.0852 9.36209 4 9.4253C3.9148 9.36209 3.80839 9.28101 3.68679 9.18362C3.35959 8.92207 2.92441 8.54566 2.49041 8.08588C1.60641 7.14893 0.8 5.94171 0.8 4.69754C0.8 3.84549 1.13721 3.02829 1.73721 2.42579Z" fill="#EEEEEE"/>
</svg>
